<svg width="58" height="58" viewBox="0 0 58 58" fill="none" xmlns="http://www.w3.org/2000/svg">
<g filter="url(#filter0_d_3_2215)">
<path d="M4 29C4 15.1929 15.1929 4 29 4V4C42.8071 4 54 15.1929 54 29V29C54 42.8071 42.8071 54 29 54V54C15.1929 54 4 42.8071 4 29V29Z" fill="url(#paint0_linear_3_2215)"/>
<path d="M29 53.5C15.469 53.5 4.5 42.531 4.5 29C4.5 15.469 15.469 4.5 29 4.5C42.531 4.5 53.5 15.469 53.5 29C53.5 42.531 42.531 53.5 29 53.5Z" stroke="#72AECF"/>
</g>
<line x1="12.5" y1="19.5" x2="44.5" y2="19.5" stroke="white" stroke-width="3" stroke-linecap="round"/>
<line x1="12.5" y1="29.5" x2="44.5" y2="29.5" stroke="white" stroke-width="3" stroke-linecap="round"/>
<line x1="12.5" y1="38.5" x2="44.5" y2="38.5" stroke="white" stroke-width="3" stroke-linecap="round"/>
<rect x="16" y="15" width="9" height="9" rx="4.5" fill="white"/>
<rect x="18" y="17" width="5" height="5" rx="2.5" fill="url(#paint1_linear_3_2215)"/>
<rect x="32" y="25" width="9" height="9" rx="4.5" fill="white"/>
<rect x="34" y="27" width="5" height="5" rx="2.5" fill="url(#paint2_linear_3_2215)"/>
<rect x="16" y="34" width="9" height="9" rx="4.5" fill="white"/>
<rect x="18" y="36" width="5" height="5" rx="2.5" fill="url(#paint3_linear_3_2215)"/>
<defs>
<filter id="filter0_d_3_2215" x="0" y="0" width="58" height="58" filterUnits="userSpaceOnUse" color-interpolation-filters="sRGB">
<feFlood flood-opacity="0" result="BackgroundImageFix"/>
<feColorMatrix in="SourceAlpha" type="matrix" values="0 0 0 0 0 0 0 0 0 0 0 0 0 0 0 0 0 0 127 0" result="hardAlpha"/>
<feOffset/>
<feGaussianBlur stdDeviation="2"/>
<feComposite in2="hardAlpha" operator="out"/>
<feColorMatrix type="matrix" values="0 0 0 0 0 0 0 0 0 0 0 0 0 0 0 0 0 0 0.25 0"/>
<feBlend mode="normal" in2="BackgroundImageFix" result="effect1_dropShadow_3_2215"/>
<feBlend mode="normal" in="SourceGraphic" in2="effect1_dropShadow_3_2215" result="shape"/>
</filter>
<linearGradient id="paint0_linear_3_2215" x1="29" y1="4" x2="29" y2="54" gradientUnits="userSpaceOnUse">
<stop stop-color="#5DE0FA"/>
<stop offset="0.140625" stop-color="#5D77FA"/>
<stop offset="0.28125" stop-color="#915DFA"/>
<stop offset="0.427083" stop-color="#E05DFA"/>
<stop offset="0.567708" stop-color="#FA5DAB"/>
<stop offset="0.708333" stop-color="#FA5D5D"/>
<stop offset="0.854167" stop-color="#FAFA5D"/>
<stop offset="1" stop-color="#5DFA5D"/>
</linearGradient>
<linearGradient id="paint1_linear_3_2215" x1="20.5" y1="17" x2="20.5" y2="22" gradientUnits="userSpaceOnUse">
<stop stop-color="#8763FB"/>
<stop offset="1" stop-color="#BE5EFB"/>
</linearGradient>
<linearGradient id="paint2_linear_3_2215" x1="36.5" y1="27" x2="36.5" y2="32" gradientUnits="userSpaceOnUse">
<stop stop-color="#E55EEC"/>
<stop offset="1" stop-color="#F95EB1"/>
</linearGradient>
<linearGradient id="paint3_linear_3_2215" x1="20.5" y1="36" x2="20.5" y2="41" gradientUnits="userSpaceOnUse">
<stop stop-color="#FB5E82"/>
<stop offset="1" stop-color="#FB805E"/>
</linearGradient>
</defs>
</svg>

