<svg width="58" height="58" viewBox="0 0 58 58" fill="none" xmlns="http://www.w3.org/2000/svg">
<g filter="url(#filter0_d_0_1)">
<rect x="4" y="4" width="50" height="50" rx="25" fill="white"/>
<rect x="4.5" y="4.5" width="49" height="49" rx="24.5" stroke="#2F2F2F"/>
</g>
<rect x="20.5" y="20.5" width="17" height="17" rx="8.5" fill="black" stroke="black"/>
<rect x="29" y="12" width="1" height="6" rx="0.5" fill="black"/>
<rect x="17.1064" y="17.2761" width="1.64103" height="5.74359" rx="0.820513" transform="rotate(-45 17.1064 17.2761)" fill="black"/>
<rect x="13" y="30" width="1" height="5" rx="0.5" transform="rotate(-90 13 30)" fill="black"/>
<rect x="18.8467" y="41.064" width="1.64103" height="4.92308" rx="0.820513" transform="rotate(-135 18.8467 41.064)" fill="black"/>
<rect x="29" y="40" width="1" height="5" rx="0.5" fill="black"/>
<rect x="36.833" y="37.0024" width="1.64103" height="4.92308" rx="0.820513" transform="rotate(-45 36.833 37.0024)" fill="black"/>
<rect x="40" y="30" width="1" height="5" rx="0.5" transform="rotate(-90 40 30)" fill="black"/>
<rect x="37.9932" y="21.9175" width="1.64103" height="4.92308" rx="0.820513" transform="rotate(-135 37.9932 21.9175)" fill="black"/>
<defs>
<filter id="filter0_d_0_1" x="0" y="0" width="58" height="58" filterUnits="userSpaceOnUse" color-interpolation-filters="sRGB">
<feFlood flood-opacity="0" result="BackgroundImageFix"/>
<feColorMatrix in="SourceAlpha" type="matrix" values="0 0 0 0 0 0 0 0 0 0 0 0 0 0 0 0 0 0 127 0" result="hardAlpha"/>
<feOffset/>
<feGaussianBlur stdDeviation="2"/>
<feComposite in2="hardAlpha" operator="out"/>
<feColorMatrix type="matrix" values="0 0 0 0 0 0 0 0 0 0 0 0 0 0 0 0 0 0 0.25 0"/>
<feBlend mode="normal" in2="BackgroundImageFix" result="effect1_dropShadow_0_1"/>
<feBlend mode="normal" in="SourceGraphic" in2="effect1_dropShadow_0_1" result="shape"/>
</filter>
</defs>
</svg>
